<svg width="34" height="34" viewBox="0 0 34 34" fill="none" xmlns="http://www.w3.org/2000/svg">
<path fill-rule="evenodd" clip-rule="evenodd" d="M28.642 1.09804C29.6198 0.924108 30.9587 0.872313 31.988 1.90164C33.0173 2.93096 32.9655 4.26985 32.7916 5.24761C32.6207 6.2084 32.2188 7.41355 31.7654 8.77337L26.8366 23.5599C26.0639 25.8781 25.4485 27.7242 24.8758 29.0688C24.3373 30.3331 23.6571 31.6302 22.5056 32.292C20.8631 33.236 18.8426 33.236 17.2001 32.292C16.0486 31.6302 15.3684 30.3331 14.8299 29.0688C14.2572 27.7243 13.6419 25.8782 12.8692 23.5601L12.8417 23.4775C12.4906 22.4244 12.4071 22.2214 12.3042 22.0684C12.176 21.8776 12.012 21.7136 11.8213 21.5855C11.6683 21.4826 11.4653 21.399 10.4122 21.048L10.3296 21.0204C8.01149 20.2478 6.16537 19.6324 4.8208 19.0597C3.55659 18.5212 2.25947 17.841 1.59766 16.6895C0.653646 15.047 0.653646 13.0266 1.59766 11.3841C2.25947 10.2325 3.55659 9.55233 4.8208 9.01386C6.16538 8.44116 8.0115 7.8258 10.3296 7.05312L25.1163 2.12421C26.4761 1.67079 27.6812 1.26896 28.642 1.09804ZM29.2636 4.59223C28.5912 4.71184 27.6379 5.0247 26.1115 5.5335L11.5345 10.3925C9.11535 11.1989 7.40735 11.7697 6.21156 12.2791C5.61944 12.5313 5.2235 12.7396 4.96286 12.9148C4.74083 13.064 4.67798 13.1488 4.67268 13.1561C4.3607 13.7018 4.3607 14.3718 4.67268 14.9175C4.67798 14.9247 4.74083 15.0096 4.96286 15.1588C5.2235 15.3339 5.61944 15.5423 6.21156 15.7945C7.40735 16.3038 9.11535 16.8747 11.5345 17.681C11.5897 17.6995 11.6445 17.7177 11.6989 17.7357C12.4945 18 13.1953 18.2327 13.8011 18.6399C14.3732 19.0244 14.8652 19.5165 15.2497 20.0886C15.6569 20.6944 15.8897 21.3951 16.1539 22.1908C16.172 22.2451 16.1902 22.2999 16.2086 22.3552C17.015 24.7743 17.5858 26.4823 18.0951 27.6781C18.3473 28.2702 18.5557 28.6661 18.7309 28.9268C18.88 29.1487 18.9648 29.2116 18.9721 29.217C19.5178 29.5289 20.1879 29.5289 20.7336 29.217C20.7409 29.2116 20.8257 29.1487 20.9749 28.9268C21.15 28.6661 21.3584 28.2702 21.6106 27.6781C22.1199 26.4823 22.6908 24.7743 23.4971 22.3552L28.3561 7.77811C28.8649 6.25171 29.1778 5.29839 29.2974 4.62602C29.2999 4.61203 29.3023 4.5984 29.3045 4.58515C29.2912 4.58738 29.2776 4.58974 29.2636 4.59223ZM29.7232 4.55122C29.7232 4.55122 29.717 4.55106 29.7068 4.54881C29.7184 4.54977 29.7232 4.55122 29.7232 4.55122ZM29.3408 4.18289C29.3386 4.17268 29.3384 4.16647 29.3384 4.16647C29.3384 4.16647 29.3399 4.17121 29.3408 4.18289Z" fill="#0BC251" stroke="#0BC251" stroke-width="1.5"/>
</svg>
